<?xml version="1.0" standalone="no"?>
<!DOCTYPE svg PUBLIC "-//W3C//DTD SVG 20010904//EN"
 "http://www.w3.org/TR/2001/REC-SVG-20010904/DTD/svg10.dtd">
<svg version="1.0" xmlns="http://www.w3.org/2000/svg"
 width="209.000000pt" height="65.000000pt" viewBox="0 0 209.000000 65.000000"
 preserveAspectRatio="xMidYMid meet">

<g transform="translate(0.000000,65.000000) scale(0.100000,-0.100000)"
fill="#000000" stroke="none">
<path d="M17 632 c-15 -16 -17 -52 -17 -298 0 -226 3 -284 14 -300 14 -18 30
-19 376 -19 346 0 362 1 376 19 22 30 21 562 -2 594 l-15 22 -358 0 c-334 0
-359 -1 -374 -18z m363 -157 c0 -20 -7 -52 -15 -72 -19 -46 -19 -56 1 -19 9
16 19 49 23 74 l6 45 30 -43 29 -42 -28 -23 -28 -22 51 -36 c28 -21 54 -37 58
-37 7 0 -46 41 -77 61 -13 7 -10 13 13 34 41 36 124 36 164 -1 l28 -25 -37 3
c-34 4 -38 1 -54 -34 -14 -32 -27 -41 -92 -68 -60 -26 -77 -29 -84 -18 -7 9
-8 7 -5 -9 4 -18 -5 -28 -55 -57 -33 -20 -62 -36 -65 -36 -7 0 89 174 101 183
8 5 7 10 -3 16 -8 5 -54 40 -103 78 l-89 68 53 6 c29 3 81 6 116 7 l62 2 0
-35z m-105 -91 l40 -35 -65 32 c-80 38 -80 39 -44 39 19 0 43 -13 69 -36z"/>
<path d="M352 290 c0 -14 2 -19 5 -12 2 6 2 18 0 25 -3 6 -5 1 -5 -13z"/>
<path d="M1510 603 c0 -30 3 -33 30 -33 l30 0 0 -190 0 -190 30 0 31 0 -3 190
-3 190 33 0 c30 0 32 2 32 33 l0 32 -90 0 -90 0 0 -32z"/>
<path d="M1895 622 c3 -8 5 -108 5 -223 l0 -210 26 3 c26 3 26 4 26 85 0 45
-3 87 -7 92 -4 7 14 11 52 11 33 0 64 5 71 12 13 13 17 205 4 225 -4 7 -42 13
-95 15 -70 2 -86 0 -82 -10z m135 -110 c0 -32 -2 -61 -5 -63 -2 -3 -21 -3 -40
-1 l-36 4 2 47 c1 26 -1 52 -5 59 -5 9 6 12 38 12 l46 0 0 -58z"/>
<path d="M888 410 l3 -220 24 0 25 0 0 112 c0 61 2 109 5 106 5 -5 17 -51 50
-195 4 -19 12 -23 40 -23 l35 0 0 220 0 220 -31 0 -31 0 4 -109 c3 -109 -4
-135 -17 -64 -3 21 -13 68 -21 106 l-16 67 -36 0 -37 0 3 -220z"/>
<path d="M1108 410 l3 -220 74 0 75 0 0 36 0 36 -47 -3 -48 -3 -5 62 -5 62 38
0 c35 0 37 2 37 33 0 30 -2 32 -32 32 l-33 0 -5 63 -5 62 53 0 c51 0 52 0 52
30 l0 30 -77 0 -78 0 3 -220z"/>
<path d="M1280 626 c0 -2 18 -51 39 -109 l39 -105 -33 -89 c-52 -140 -51 -133
-16 -133 27 0 31 4 51 66 12 36 26 62 30 57 4 -4 17 -33 28 -63 17 -49 23 -55
50 -58 l31 -3 -31 83 c-55 148 -54 131 -10 251 l40 108 -31 -3 c-29 -3 -34 -8
-52 -60 -11 -31 -23 -59 -25 -62 -3 -3 -16 24 -29 60 -21 59 -25 64 -52 64
-16 0 -29 -2 -29 -4z"/>
<path d="M1718 410 l3 -220 74 0 75 0 0 36 0 36 -47 -3 -48 -3 -1 50 c-1 28
-4 56 -8 63 -5 7 6 11 33 11 40 0 41 1 41 33 0 30 -2 32 -32 32 -33 0 -33 0
-34 51 -1 28 -4 56 -8 63 -5 8 9 11 48 11 56 0 56 0 56 30 l0 30 -77 0 -78 0
3 -220z"/>
<path d="M884 74 c3 -9 6 -24 6 -35 0 -33 18 -21 22 16 3 29 1 35 -15 35 -13
0 -17 -5 -13 -16z"/>
<path d="M950 53 c1 -34 2 -36 14 -20 16 21 26 22 26 2 0 -8 5 -15 10 -15 6 0
10 16 10 35 0 19 -4 35 -10 35 -5 0 -10 -7 -10 -15 0 -8 -4 -15 -10 -15 -5 0
-10 7 -10 15 0 8 -4 15 -10 15 -5 0 -10 -17 -10 -37z"/>
<path d="M1040 65 c0 -14 -1 -28 -2 -32 -2 -5 7 -9 20 -11 12 -2 22 1 22 7 0
6 -8 11 -17 11 -15 0 -16 2 -3 10 10 6 11 10 3 10 -19 0 -16 18 5 23 13 4 11
5 -5 6 -18 1 -23 -4 -23 -24z"/>
<path d="M1157 64 c-3 -16 -1 -33 4 -39 6 -5 9 -2 9 10 0 17 1 17 20 0 20 -18
20 -17 19 21 -1 21 -3 31 -6 22 -6 -22 -12 -23 -28 -1 -11 14 -13 13 -18 -13z"/>
<path d="M1240 55 c0 -28 4 -35 20 -35 25 0 27 20 3 21 -15 0 -15 2 2 9 17 7
17 9 3 9 -26 1 -22 19 5 24 19 4 18 4 -5 6 -26 1 -28 -2 -28 -34z"/>
<path d="M1324 53 c0 -25 3 -30 13 -21 9 7 13 7 13 -1 0 -6 5 -11 10 -11 7 0
7 7 0 21 -8 15 -8 24 0 34 8 10 6 13 -13 11 -19 -1 -23 -7 -23 -33z"/>
<path d="M1408 55 c4 -37 22 -49 22 -16 0 11 3 26 6 35 4 11 0 16 -13 16 -16
0 -18 -6 -15 -35z"/>
<path d="M1524 78 c-4 -6 0 -16 9 -23 22 -16 22 -26 0 -18 -11 4 -14 3 -9 -5
4 -7 13 -12 21 -12 22 0 29 22 12 35 -21 15 -22 29 -1 21 8 -3 12 -2 9 4 -8
14 -32 13 -41 -2z"/>
<path d="M1608 55 c5 -45 19 -45 24 0 3 27 0 35 -12 35 -12 0 -15 -8 -12 -35z"/>
<path d="M1670 55 c0 -31 3 -35 25 -35 14 0 25 5 25 10 0 6 -8 10 -17 10 -15
0 -16 2 -3 10 10 6 11 10 3 10 -19 0 -16 18 5 23 10 3 6 5 -10 6 -25 1 -28 -2
-28 -34z"/>
<path d="M1750 54 c0 -31 2 -34 15 -21 8 9 20 17 27 19 19 7 1 38 -22 38 -16
0 -20 -6 -20 -36z m35 16 c3 -5 -1 -10 -10 -10 -9 0 -13 5 -10 10 3 6 8 10 10
10 2 0 7 -4 10 -10z"/>
<path d="M1833 55 c0 -22 2 -30 4 -17 2 12 2 30 0 40 -3 9 -5 -1 -4 -23z"/>
</g>
</svg>
