<svg width="342" height="106.64686774941993" viewBox="0 -1 431 134.39999999999998" class="looka-1j8o68f"><defs id="SvgjsDefs9229"></defs><g id="SvgjsG9230" featurekey="symbolGroupContainer" transform="matrix(1.15,0,0,1.15,0,-1)" fill="#253b6e"><rect xmlns="http://www.w3.org/2000/svg" width="140" height="116" rx="10" ry="10"></rect></g><g id="SvgjsG9231" featurekey="symbolFeature-0" transform="matrix(1.1122233835224928,0,0,1.1122233835224928,25.428873267104425,8.848736703397112)" fill="#d2ecf9"><polygon xmlns="http://www.w3.org/2000/svg" points="40.474,50.603 21.027,86.313 45.249,72.259 44.759,70.005 "></polygon><polygon xmlns="http://www.w3.org/2000/svg" points="94.919,44.351 86.558,35.812 82.421,44.351 "></polygon><path xmlns="http://www.w3.org/2000/svg" d="M42.677,48.617l0.083-0.531l-0.146,0.357C42.631,48.491,42.653,48.549,42.677,48.617z"></path><polygon xmlns="http://www.w3.org/2000/svg" points="41.961,49.413 42.013,49.44 41.967,49.401 "></polygon><polygon xmlns="http://www.w3.org/2000/svg" points="64.544,35.812 64.342,35.948 53.289,43.46 74.246,58.557 74.282,58.583 81.175,44.351 85.312,35.812 "></polygon><polygon xmlns="http://www.w3.org/2000/svg" points="42.157,49.558 42.173,49.52 42.013,49.44 "></polygon><path xmlns="http://www.w3.org/2000/svg" d="M51.213,43.46l11.054-7.512c-5.539-7.505-11.346-14.896-13.319-17.393l0.681,12.779L41.72,49.855l4.286,19.402l0.713-0.292  l25.439-10.382l0.011-0.026L51.213,43.46z"></path><polygon xmlns="http://www.w3.org/2000/svg" points="19.353,34.614 7.952,34.833 39.469,49.917 19.784,34.956 "></polygon><polygon xmlns="http://www.w3.org/2000/svg" points="47.287,18.621 47.28,18.612 47.234,18.118 5.009,20.276 20.75,33.296 21.174,33.647 40.567,48.986 47.968,31.399   "></polygon></g><g id="SvgjsG9232" featurekey="nameFeature-0" transform="matrix(3.2992228380968416,0,0,3.2992228380968416,176.5892690015924,-36.43131914241954)" fill="#253b6e"><path d="M1.3369 12.004999999999999 l5.2406 0 l3.4225 15.267 l0 -15.241 l3.6631 0 l0 27.968 l-4.5722 0 l-3.3957 -15.187 l0 15.214 l-3.6898 0 l0 -27.193 z M15.802095187165774 12.861 l-0.66845 -0.82888 l10.508 0 l0 4.2246 l-7.246 0 l1.0963 0.82888 l0 6.8182 l4.3316 0 l0 4.2513 l-5.4278 0 l1.0963 0.80214 l0 6.8449 l6.1497 0 l0 4.2246 l-9.8396 0 l0 -4.2246 l0 -7.6471 l0 -4.2513 l0 -11.043 z M30.347617647058822 12.032 l3.1551 8.6364 l3.1283 -8.6364 l3.9305 0 l-5.107 13.984 l5.107 14.011 l-3.9305 0 l-3.1283 -8.6364 l-3.1551 8.6364 l-3.9037 0 l5.107 -14.011 l-4.8128 -13.155 l-0.66845 -0.82888 l4.2781 0 z M44.973279679144376 16.203 l-3.984 0 l0 -4.2513 l11.658 0 l0 4.2513 l-5.0802 0 l1.0963 0.80214 l0 22.968 l-3.6898 0 l0 -23.77 z M54.17107914438502 12.861 l-0.66845 -0.82888 l10.508 0 l0 4.2246 l-7.246 0 l1.0963 0.82888 l0 6.8182 l4.3316 0 l0 4.2513 l-5.4278 0 l1.0963 0.80214 l0 6.8449 l6.1497 0 l0 4.2246 l-9.8396 0 l0 -4.2246 l0 -7.6471 l0 -4.2513 l0 -11.043 z M69.14436737967912 23.85 l4.3048 0 l0 -7.6738 l-5.4011 0 l1.0963 0.82888 l0 6.8449 z M77.11226737967914 14.626000000000001 l0 10.802 c0 1.4171 -1.1497 2.6471 -2.6471 2.6471 l-6.4171 0 l1.0963 0.82888 l0 11.07 l-3.6898 0 l0 -27.193 l-0.66845 -0.82888 l9.6791 0 c1.4973 0 2.6471 1.1765 2.6471 2.6738 z"></path></g><g id="SvgjsG9233" featurekey="sloganFeature-0" transform="matrix(1.1361473274637475,0,0,1.1361473274637475,179.86385294341488,107.77429360920596)" fill="#253b6e"><path d="M4.24 20 c-0.14 0 -0.24 -0.12 -0.24 -0.26 l0 -9.44 l-2.74 0 c-0.14 0 -0.26 -0.1 -0.26 -0.24 l0 -2.3 c0 -0.14 0.12 -0.26 0.26 -0.26 l8.58 0 c0.16 0 0.26 0.12 0.26 0.26 l0 2.3 c0 0.14 -0.1 0.24 -0.26 0.24 l-2.74 0 l0 9.44 c0 0.14 -0.12 0.26 -0.26 0.26 l-2.6 0 z M14.939499999999999 20 c-0.14 0 -0.26 -0.12 -0.26 -0.26 l0 -11.98 c0 -0.14 0.12 -0.26 0.26 -0.26 l2.6 0 c0.14 0 0.26 0.12 0.26 0.26 l0 4.92 l4.52 0 l0 -4.92 c0 -0.14 0.12 -0.26 0.26 -0.26 l2.6 0 c0.14 0 0.26 0.12 0.26 0.26 l0 11.98 c0 0.14 -0.12 0.26 -0.26 0.26 l-2.6 0 c-0.14 0 -0.26 -0.12 -0.26 -0.26 l0 -4.3 l-4.52 0 l0 4.3 c0 0.14 -0.12 0.26 -0.26 0.26 l-2.6 0 z M30.019 20 l0 -11.98 c0 -0.5 0.1 -0.6 0.26 -0.6 l8.76 0 c0.14 0 0.26 0.1 0.26 0.24 l0 2.26 c0 0.14 -0.12 0.26 -0.26 0.26 l-5.92 0 l0 2.08 l3.74 0 c0.14 0 0.26 0.12 0.26 0.26 l0 2.24 c0 0.14 -0.12 0.26 -0.26 0.26 l-3.74 0 l0 2.14 l5.9 0 c0.14 0 0.26 0.12 0.26 0.26 l0 2.24 c0 0.14 -0.12 0.26 -0.26 0.26 l-8.74 0 c-0.16 0 -0.26 -0.12 -0.26 0.08 z M52.117999999999995 20 c-0.14 0 -0.26 -0.12 -0.26 -0.26 l0 -11.98 c0 -0.14 0.12 -0.26 0.26 -0.26 l2.36 0 c0.08 0 0.16 0.04 0.22 0.1 l4.6 7.1 l0 -6.94 c0 -0.14 0.12 -0.26 0.26 -0.26 l2.46 0 c0.14 0 0.26 0.12 0.26 0.26 l0 11.98 c0 0.14 -0.12 0.26 -0.26 0.26 l-2.36 0 c-0.08 0 -0.16 -0.04 -0.22 -0.1 l-4.58 -7.06 l0 6.9 c0 0.14 -0.12 0.26 -0.26 0.26 l-2.48 0 z M66.8575 20 l0 -11.98 c0 -0.5 0.1 -0.6 0.26 -0.6 l8.76 0 c0.14 0 0.26 0.1 0.26 0.24 l0 2.26 c0 0.14 -0.12 0.26 -0.26 0.26 l-5.92 0 l0 2.08 l3.74 0 c0.14 0 0.26 0.12 0.26 0.26 l0 2.24 c0 0.14 -0.12 0.26 -0.26 0.26 l-3.74 0 l0 2.14 l5.9 0 c0.14 0 0.26 0.12 0.26 0.26 l0 2.24 c0 0.14 -0.12 0.26 -0.26 0.26 l-8.74 0 c-0.16 0 -0.26 -0.12 -0.26 0.08 z M80.957 20 c-0.1 0 -0.18 -0.06 -0.22 -0.14 s-0.04 -0.18 0 -0.26 l3.36 -5.98 l-3.08 -5.72 c-0.04 -0.08 -0.04 -0.18 0 -0.26 s0.12 -0.14 0.22 -0.14 l2.82 0 c0.1 0 0.18 0.04 0.22 0.12 l1.68 3.16 l1.68 -3.16 c0.04 -0.08 0.12 -0.12 0.22 -0.12 l2.88 0 c0.08 0 0.18 0.06 0.22 0.14 s0.04 0.18 -0.02 0.26 l-3.04 5.6 l3.38 6.1 c0.04 0.08 0.06 0.18 0 0.26 c-0.04 0.08 -0.12 0.14 -0.22 0.14 l-2.9 0 c-0.1 0 -0.18 -0.04 -0.22 -0.12 l-1.98 -3.5 l-1.94 3.5 c-0.06 0.08 -0.14 0.12 -0.22 0.12 l-2.84 0 z M99.1365 20 c-0.14 0 -0.24 -0.12 -0.24 -0.26 l0 -9.44 l-2.74 0 c-0.14 0 -0.26 -0.1 -0.26 -0.24 l0 -2.3 c0 -0.14 0.12 -0.26 0.26 -0.26 l8.58 0 c0.16 0 0.26 0.12 0.26 0.26 l0 2.3 c0 0.14 -0.1 0.24 -0.26 0.24 l-2.74 0 l0 9.44 c0 0.14 -0.12 0.26 -0.26 0.26 l-2.6 0 z M122.89550000000001 20.12 c-0.96 0 -1.92 -0.18 -2.84 -0.54 c-0.92 -0.34 -1.74 -0.84 -2.42 -1.44 c-0.08 -0.08 -0.1 -0.2 -0.06 -0.3 l0.7 -2.38 c0.04 -0.08 0.1 -0.14 0.18 -0.14 c0.08 -0.02 0.16 0 0.22 0.06 c1.06 1 2.26 1.9 3.76 1.98 c0.4 0.02 0.84 0.04 1.22 -0.08 c1.18 -0.38 0.68 -1.58 -0.2 -1.94 c-0.3 -0.12 -0.72 -0.26 -1.26 -0.42 c-0.8 -0.22 -1.46 -0.46 -1.96 -0.7 c-0.54 -0.24 -1 -0.62 -1.4 -1.12 c-0.38 -0.52 -0.58 -1.2 -0.58 -2.02 c0 -0.78 0.2 -1.46 0.6 -2.04 s0.96 -1.04 1.66 -1.34 s1.52 -0.46 2.44 -0.46 c0.82 0 1.62 0.12 2.42 0.38 c0.78 0.24 1.48 0.58 2.1 0.98 c0.1 0.08 0.14 0.2 0.08 0.32 l-0.66 2.24 c-0.02 0.08 -0.08 0.12 -0.16 0.14 c-0.06 0.02 -0.14 0.02 -0.2 -0.02 c-0.9 -0.56 -1.8 -1.24 -2.86 -1.38 c-0.7 -0.1 -1.76 -0.06 -2 0.78 c-0.3 1.08 1.28 1.36 2 1.58 c0.8 0.24 1.46 0.48 1.98 0.72 c0.54 0.26 1.02 0.66 1.4 1.16 c0.4 0.52 0.6 1.22 0.6 2.06 c0 0.82 -0.22 1.52 -0.64 2.12 c-0.4 0.6 -0.98 1.04 -1.7 1.36 c-0.72 0.28 -1.52 0.44 -2.42 0.44 z M135.47500000000002 20 c-0.14 0 -0.24 -0.12 -0.24 -0.26 l0 -9.44 l-2.74 0 c-0.14 0 -0.26 -0.1 -0.26 -0.24 l0 -2.3 c0 -0.14 0.12 -0.26 0.26 -0.26 l8.58 0 c0.16 0 0.26 0.12 0.26 0.26 l0 2.3 c0 0.14 -0.1 0.24 -0.26 0.24 l-2.74 0 l0 9.44 c0 0.14 -0.12 0.26 -0.26 0.26 l-2.6 0 z M145.9145 20 l0 -11.98 c0 -0.5 0.1 -0.6 0.26 -0.6 l8.76 0 c0.14 0 0.26 0.1 0.26 0.24 l0 2.26 c0 0.14 -0.12 0.26 -0.26 0.26 l-5.92 0 l0 2.08 l3.74 0 c0.14 0 0.26 0.12 0.26 0.26 l0 2.24 c0 0.14 -0.12 0.26 -0.26 0.26 l-3.74 0 l0 2.14 l5.9 0 c0.14 0 0.26 0.12 0.26 0.26 l0 2.24 c0 0.14 -0.12 0.26 -0.26 0.26 l-8.74 0 c-0.16 0 -0.26 -0.12 -0.26 0.08 z M160.014 20 c-0.14 0 -0.24 -0.12 -0.24 -0.26 l0 -11.98 c0 -0.14 0.1 -0.26 0.24 -0.26 l4.9 0 c1.52 0 2.72 0.38 3.56 1.16 c1.24 1.12 1.66 3.24 1.06 4.8 c-0.22 0.56 -0.6 1.08 -1.08 1.46 c-1.62 1.26 -3.64 1.14 -5.58 1.14 l0 3.68 c0 0.14 -0.12 0.26 -0.26 0.26 l-2.6 0 z M162.874 13.280000000000001 c0 0 2.52 0.28 3.4 -0.3 c0.34 -0.22 0.54 -0.76 0.54 -1.16 c-0.02 -0.44 -0.24 -0.9 -0.6 -1.18 c-0.38 -0.32 -1.32 -0.42 -1.8 -0.42 l-1.54 0.04 l0 3.02 z M174.7735 16.32 c-0.14 0 -0.26 -0.1 -0.26 -0.24 l-0.1 -8.5 c0 -0.14 0.1 -0.24 0.24 -0.24 l2.08 0 c0.14 0 0.26 0.1 0.26 0.24 l-0.1 8.5 c-0.02 0.14 -0.12 0.24 -0.26 0.24 l-1.86 0 z M175.7135 20 c-0.36 0 -0.68 -0.14 -0.92 -0.4 c-0.26 -0.28 -0.38 -0.6 -0.38 -1 s0.12 -0.72 0.38 -0.98 c0.24 -0.26 0.56 -0.4 0.92 -0.4 c0.38 0 0.7 0.14 0.96 0.4 c0.24 0.26 0.36 0.58 0.36 0.98 s-0.12 0.74 -0.36 1 c-0.26 0.26 -0.56 0.4 -0.96 0.4 z"></path></g></svg>