<?xml version="1.0" encoding="UTF-8"?>
<svg version="1.1" xmlns="http://www.w3.org/2000/svg" width="209" height="65">
<path d="M0 0 C0.7172374 -0.00671722 1.43447479 -0.01343445 2.17344666 -0.02035522 C4.55067827 -0.0393944 6.92762848 -0.04326228 9.30493164 -0.04541016 C10.95398578 -0.05183377 12.60303875 -0.05856179 14.25209045 -0.06558228 C17.71138146 -0.07756969 21.17057249 -0.08126158 24.62988281 -0.08007812 C29.06672309 -0.0798748 33.50292379 -0.10718378 37.93961239 -0.14162254 C41.34622655 -0.1638392 44.75268549 -0.1679173 48.1593647 -0.16685867 C49.79527556 -0.16922228 51.43119021 -0.1780884 53.06702995 -0.19352341 C55.35373852 -0.21307967 57.6390511 -0.20738779 59.92578125 -0.1953125 C61.22768906 -0.19816254 62.52959686 -0.20101257 63.87095642 -0.20394897 C67.02758789 0.29052734 67.02758789 0.29052734 68.94818115 1.98092651 C70.24178966 4.74885373 70.40191278 6.67604349 70.39990234 9.72998047 C70.40924553 11.36187317 70.40924553 11.36187317 70.41877747 13.0267334 C70.40956772 14.1965979 70.40035797 15.3664624 70.39086914 16.57177734 C70.3916169 18.38023132 70.3916169 18.38023132 70.39237976 20.22521973 C70.39003961 22.77386117 70.38031464 25.32250494 70.36376953 27.87109375 C70.34017906 31.77543777 70.3432092 35.67909892 70.34985352 39.58349609 C70.3442767 42.05876059 70.3371668 44.5340222 70.32836914 47.00927734 C70.32928055 48.17914185 70.33019196 49.34900635 70.33113098 50.55432129 C70.32159897 51.64224976 70.31206696 52.73017822 70.30224609 53.85107422 C70.29533501 55.28525696 70.29533501 55.28525696 70.2882843 56.74841309 C70.01466634 59.41652854 69.47251051 61.04386503 68.02758789 63.29052734 C65.0994782 64.75458219 62.50835627 64.42594337 59.23876953 64.43579102 C58.54103928 64.43914963 57.84330902 64.44250824 57.12443542 64.44596863 C54.81218701 64.45548706 52.50001094 64.45742216 50.18774414 64.45849609 C48.58353139 64.46170797 46.97931894 64.46507199 45.37510681 64.46858215 C42.00999268 64.47457559 38.64490425 64.47642182 35.27978516 64.47583008 C30.96420915 64.47572842 26.64879756 64.4893831 22.33326054 64.50660229 C19.01931499 64.51771135 15.70540933 64.51974963 12.39144707 64.51922035 C10.80021027 64.52040203 9.2089725 64.52483428 7.61775398 64.53255272 C5.39365184 64.54233102 3.16990848 64.53948334 0.94580078 64.53344727 C-0.95376625 64.53558479 -0.95376625 64.53558479 -2.89170837 64.5377655 C-5.97241211 64.29052734 -5.97241211 64.29052734 -8.97241211 62.29052734 C-9.34663391 59.78564453 -9.34663391 59.78564453 -9.34472656 56.58740234 C-9.35095535 55.39276367 -9.35718414 54.198125 -9.36360168 52.96728516 C-9.35439194 51.67145508 -9.34518219 50.375625 -9.33569336 49.04052734 C-9.33517487 47.70296225 -9.33569213 46.36539638 -9.33720398 45.02783203 C-9.33711421 42.22335447 -9.32667544 39.41916409 -9.30859375 36.61474609 C-9.28590606 33.01645857 -9.28536182 29.41859083 -9.2921114 25.82025146 C-9.29544985 23.05790463 -9.2888237 20.29565383 -9.27898216 17.5333252 C-9.27325035 15.56014804 -9.27456738 13.58695452 -9.2759552 11.61376953 C-9.26642319 10.41913086 -9.25689117 9.22449219 -9.24707031 7.99365234 C-9.24246292 6.93823242 -9.23785553 5.8828125 -9.23310852 4.79541016 C-8.6482324 -0.82433018 -4.69083305 0.02748496 0 0 Z " fill="#243A6C" transform="translate(8.972412109375,-0.29052734375)"/>
<path d="M0 0 C0.37890625 1.890625 0.37890625 1.890625 0.5625 4.25 C0.84010889 7.62663063 1.32661411 10.63307054 2 14 C2.33 9.38 2.66 4.76 3 0 C5.31 0 7.62 0 10 0 C10 14.85 10 29.7 10 45 C10.66 45 11.32 45 12 45 C11.67 30.15 11.34 15.3 11 0 C19.25 0 27.5 0 36 0 C38.475 4.95 38.475 4.95 41 10 C42.32 6.7 43.64 3.4 45 0 C82.91993926 -1.52360517 82.91993926 -1.52360517 100.5 -0.5625 C101.22533936 -0.52334473 101.95067871 -0.48418945 102.69799805 -0.44384766 C107.74945886 -0.12527057 107.74945886 -0.12527057 110 1 C110.08696177 4.93736123 110.14037835 8.87447628 110.1875 12.8125 C110.21263672 13.93205078 110.23777344 15.05160156 110.26367188 16.20507812 C110.27333984 17.27822266 110.28300781 18.35136719 110.29296875 19.45703125 C110.3086792 20.44678955 110.32438965 21.43654785 110.34057617 22.45629883 C110 25 110 25 107 28 C104.03 27.67 101.06 27.34 98 27 C98.33 33.6 98.66 40.2 99 47 C90.09 47 81.18 47 72 47 C72 34.13 72 21.26 72 8 C70.02 8.33 68.04 8.66 66 9 C66 21.54 66 34.08 66 47 C63.03 46.67 60.06 46.34 57 46 C57.33 33.46 57.66 20.92 58 8 C56.02 8 54.04 8 52 8 C51.505 7.505 51.505 7.505 51 7 C50.71125 8.134375 50.4225 9.26875 50.125 10.4375 C49.75375 11.613125 49.3825 12.78875 49 14 C48.34 14.33 47.68 14.66 47 15 C46.31068656 17.34907875 46.31068656 17.34907875 45.875 20.0625 C45.70742187 20.98160156 45.53984375 21.90070312 45.3671875 22.84765625 C45.18542969 23.91306641 45.18542969 23.91306641 45 25 C45.66 25.33 46.32 25.66 47 26 C46.67 26.66 46.34 27.32 46 28 C46.66 28.33 47.32 28.66 48 29 C48.78125 31.109375 48.78125 31.109375 49.5 33.75 C50.29498688 36.5932949 51.09199023 39.21617705 52.25 41.9375 C53 44 53 44 52 47 C49.36 47 46.72 47 44 47 C43.01 43.04 42.02 39.08 41 35 C40.34 36.794375 39.68 38.58875 39 40.4375 C37.875 43.49609375 37.875 43.49609375 36 46 C33.08722097 46.74900032 30.96894832 46.96384117 28 47 C26.91976562 47.02006104 25.83953125 47.04012207 24.7265625 47.06079102 C20.98343006 47.09877576 17.24321997 47.08722655 13.5 47.0625 C12.200625 47.05798828 10.90125 47.05347656 9.5625 47.04882812 C6.37495175 47.0371092 3.18750045 47.02070219 0 47 C-0.06058594 46.40832031 -0.12117188 45.81664062 -0.18359375 45.20703125 C-0.26738281 44.41683594 -0.35117188 43.62664063 -0.4375 42.8125 C-0.51871094 42.03519531 -0.59992188 41.25789063 -0.68359375 40.45703125 C-1.00597621 37.95359214 -1.50498105 35.47509476 -2 33 C-2 37.62 -2 42.24 -2 47 C-4.97 47 -7.94 47 -11 47 C-11 31.49 -11 15.98 -11 0 C-2 -1 -2 -1 0 0 Z M29 2 C29 3.98 29 5.96 29 8 C25.7 8 22.4 8 19 8 C19 11.63 19 15.26 19 19 C21.31 19 23.62 19 26 19 C26 21.64 26 24.28 26 27 C23.69 27 21.38 27 19 27 C19 30.63 19 34.26 19 38 C22.3 38 25.6 38 29 38 C29 39.65 29 41.3 29 43 C33.51831823 38.48168177 35.77008655 30.22900804 37 24 C36.67211481 18.51256298 35.02135828 14.53203742 32 10 C31.18220159 7.35982365 30.6190511 4.69729409 30 2 C29.67 2 29.34 2 29 2 Z M90 1 C90 3.31 90 5.62 90 8 C86.7 8 83.4 8 80 8 C80 11.63 80 15.26 80 19 C82.31 19 84.62 19 87 19 C87 21.64 87 24.28 87 27 C84.69 27 82.38 27 80 27 C80 30.63 80 34.26 80 38 C83.3 38 86.6 38 90 38 C90 40.31 90 42.62 90 45 C90.33 45 90.66 45 91 45 C91 30.48 91 15.96 91 1 C90.67 1 90.34 1 90 1 Z M98 8 C98 11.63 98 15.26 98 19 C99.98 19 101.96 19 104 19 C104 15.37 104 11.74 104 8 C102.02 8 100.04 8 98 8 Z " fill="#213664" transform="translate(98,1)"/>
<path d="M0 0 C6.27 0 12.54 0 19 0 C19.02682614 3.97921094 19.04675393 7.95824341 19.0625 11.9375 C19.07087891 13.07380859 19.07925781 14.21011719 19.08789062 15.38085938 C19.09272461 17.00024414 19.09272461 17.00024414 19.09765625 18.65234375 C19.10551147 20.15269165 19.10551147 20.15269165 19.11352539 21.68334961 C19 24 19 24 18 25 C13.99779347 25.14355117 10.00558317 25.04216403 6 25 C6 31.27 6 37.54 6 44 C4.35 44 2.7 44 1 44 C0.67 29.48 0.34 14.96 0 0 Z M7 7 C7 10.63 7 14.26 7 18 C8.98 18 10.96 18 13 18 C13 14.37 13 10.74 13 7 C11.02 7 9.04 7 7 7 Z " fill="#253B6F" transform="translate(189,2)"/>
<path d="M0 0 C5.28 0 10.56 0 16 0 C16 1.98 16 3.96 16 6 C12.7 6 9.4 6 6 6 C6 10.29 6 14.58 6 19 C8.31 19 10.62 19 13 19 C13 20.98 13 22.96 13 25 C10.69 25 8.38 25 6 25 C6 28.96 6 32.92 6 37 C9.3 37 12.6 37 16 37 C16 39.31 16 41.62 16 44 C10.72 44 5.44 44 0 44 C0 29.48 0 14.96 0 0 Z " fill="#253C71" transform="translate(110,2)"/>
<path d="M0 0 C2.96404505 2.80804268 5.44499019 5.18315774 7 9 C7.33 8.67 7.66 8.34 8 8 C17.21718954 6.91744418 17.21718954 6.91744418 20.83984375 9.1171875 C22.1875 10.5 22.1875 10.5 24 13 C22.906875 13.04125 21.81375 13.0825 20.6875 13.125 C16.75003667 13.60565398 16.75003667 13.60565398 15.0625 17.0625 C14.5365625 18.5165625 14.5365625 18.5165625 14 20 C13.01 20 12.02 20 11 20 C10.67 20.66 10.34 21.32 10 22 C7.78515625 23.0703125 7.78515625 23.0703125 5.0625 24.125 C4.16660156 24.47820313 3.27070312 24.83140625 2.34765625 25.1953125 C-0 26 -0 26 -2 26 C-3.78879873 18.88341225 -4.43236157 14.73759864 -1 8 C-0.47833537 5.32528319 -0.2386358 2.7204481 0 0 Z " fill="#CDE5F1" transform="translate(39,15)"/>
<path d="M0 0 C0.46450943 6.50313209 -0.67424388 10.4174808 -4 16 C-8.45651288 16 -10.35000997 15.03477741 -14.25 13 C-15.32765625 12.443125 -16.4053125 11.88625 -17.515625 11.3125 C-18.33546875 10.879375 -19.1553125 10.44625 -20 10 C-20 9.67 -20 9.34 -20 9 C-18.02 9 -16.04 9 -14 9 C-14.5775 8.50628906 -15.155 8.01257812 -15.75 7.50390625 C-16.86375 6.54291016 -16.86375 6.54291016 -18 5.5625 C-18.7425 4.92441406 -19.485 4.28632813 -20.25 3.62890625 C-20.8275 3.09136719 -21.405 2.55382812 -22 2 C-22 1.67 -22 1.34 -22 1 C-14.63512596 0.00137301 -7.42686315 -0.10331031 0 0 Z " fill="#D0E9F4" transform="translate(38,14)"/>
<path d="M0 0 C0.7425 -0.01224609 1.485 -0.02449219 2.25 -0.03710938 C6.73845539 -0.04900457 10.4508383 0.32727576 14.625 2.1875 C15.5 4.3125 15.5 4.3125 15.625 6.1875 C14.305 6.5175 12.985 6.8475 11.625 7.1875 C11.955 8.5075 12.285 9.8275 12.625 11.1875 C10.95888095 11.230221 9.29117115 11.22813832 7.625 11.1875 C7.295 10.8575 6.965 10.5275 6.625 10.1875 C4.29202567 10.14657063 1.95794775 10.14508277 -0.375 10.1875 C-0.375 8.2075 -0.375 6.2275 -0.375 4.1875 C-1.73118499 5.31284105 -1.73118499 5.31284105 -1.4375 8.25 C-1.416875 9.219375 -1.39625 10.18875 -1.375 11.1875 C-3.025 10.8575 -4.675 10.5275 -6.375 10.1875 C-6.045 8.5375 -5.715 6.8875 -5.375 5.1875 C-6.365 5.1875 -7.355 5.1875 -8.375 5.1875 C-8.375 6.5075 -8.375 7.8275 -8.375 9.1875 C-12.125 10.3125 -12.125 10.3125 -14.375 9.1875 C-14.5 6.3125 -14.5 6.3125 -14.375 3.1875 C-10.44829592 -0.73920408 -5.2706232 0.00452803 0 0 Z M7.625 2.1875 C7.625 2.8475 7.625 3.5075 7.625 4.1875 C6.635 4.6825 6.635 4.6825 5.625 5.1875 C5.625 5.8475 5.625 6.5075 5.625 7.1875 C6.285 7.1875 6.945 7.1875 7.625 7.1875 C7.955 7.8475 8.285 8.5075 8.625 9.1875 C8.625 6.8775 8.625 4.5675 8.625 2.1875 C8.295 2.1875 7.965 2.1875 7.625 2.1875 Z " fill="#0B0E1C" transform="translate(165.375,53.8125)"/>
<path d="M0 0 C3.31242304 0 6.45930211 0.1866002 9.75 0.5 C10.73484375 0.5928125 11.7196875 0.685625 12.734375 0.78125 C13.48203125 0.8534375 14.2296875 0.925625 15 1 C14.814375 1.763125 14.62875 2.52625 14.4375 3.3125 C13.77180827 6.08967375 13.77180827 6.08967375 15 9 C15.66 9 16.32 9 17 9 C17 6.36 17 3.72 17 1 C19.64 0.67 22.28 0.34 25 0 C24.4740625 1.36125 24.4740625 1.36125 23.9375 2.75 C23.03531221 5.87758436 22.86618493 7.05208081 24 10 C18.58774542 10.77317923 13.46565354 11.0926382 8 11 C7.01 11 6.02 11 5 11 C3.35 11 1.7 11 0 11 C0 7.37 0 3.74 0 0 Z M4 2 C5 4 5 4 5 4 Z M8 2 C8 4.31 8 6.62 8 9 C8.33 9 8.66 9 9 9 C9 6.69 9 4.38 9 2 C8.67 2 8.34 2 8 2 Z " fill="#101B33" transform="translate(114,54)"/>
<path d="M0 0 C2.7084017 -0.02714434 5.41652721 -0.04690846 8.125 -0.0625 C8.88554688 -0.07087891 9.64609375 -0.07925781 10.4296875 -0.08789062 C14.7389644 -0.10646509 18.75516474 0.13882735 23 1 C22.690625 2.11375 22.690625 2.11375 22.375 3.25 C21.94845991 6.37796068 22.50299325 7.32595741 24 10 C21.89722877 10.22197585 19.79267698 10.42713637 17.6875 10.625 C16.51574219 10.74101563 15.34398438 10.85703125 14.13671875 10.9765625 C11 11 11 11 8 9 C7.3125 6.375 7.3125 6.375 7 4 C5.64381501 5.12534105 5.64381501 5.12534105 5.9375 8.0625 C5.958125 9.031875 5.97875 10.00125 6 11 C4.35 10.67 2.7 10.34 1 10 C1.20625 9.278125 1.4125 8.55625 1.625 7.8125 C2.06234272 4.53242959 1.31114945 2.97761039 0 0 Z M11 2 C11 2.66 11 3.32 11 4 C11.66 3.67 12.32 3.34 13 3 C12.34 2.67 11.68 2.34 11 2 Z M16 2 C16 4.31 16 6.62 16 9 C16.33 9 16.66 9 17 9 C17 6.69 17 4.38 17 2 C16.67 2 16.34 2 16 2 Z M11 7 C11.33 7.66 11.66 8.32 12 9 C12.33 8.34 12.66 7.68 13 7 C12.34 7 11.68 7 11 7 Z " fill="#121E3E" transform="translate(86,54)"/>
<path d="M0 0 C2.31 0 4.62 0 7 0 C7 14.85 7 29.7 7 45 C12.94 45 18.88 45 25 45 C25 42.69 25 40.38 25 38 C25.33 38 25.66 38 26 38 C26.33 40.31 26.66 42.62 27 45 C28.98 45 30.96 45 33 45 C33 45.33 33 45.66 33 46 C25.50009325 47.20263656 18.0817215 47.11258251 10.5 47.0625 C9.200625 47.05798828 7.90125 47.05347656 6.5625 47.04882812 C3.37495175 47.0371092 0.18750045 47.02070219 -3 47 C-3 46.34 -3 45.68 -3 45 C-0.03 45 2.94 45 6 45 C6 30.48 6 15.96 6 1 C4.02 1 2.04 1 0 1 C0 0.67 0 0.34 0 0 Z " fill="#0C132A" transform="translate(101,1)"/>
<path d="M0 0 C2.39763185 2.39763185 2.34280586 3.33273498 2.625 6.625 C2.69976562 7.44226562 2.77453125 8.25953125 2.8515625 9.1015625 C2.92503906 10.04128906 2.92503906 10.04128906 3 11 C1.3811004 12.03048037 -0.24532489 13.04914678 -1.875 14.0625 C-2.77992187 14.63097656 -3.68484375 15.19945312 -4.6171875 15.78515625 C-5.40351563 16.18605469 -6.18984375 16.58695313 -7 17 C-7.66 16.67 -8.32 16.34 -9 16 C-6.03 10.72 -3.06 5.44 0 0 Z " fill="#D6EDF7" transform="translate(33,33)"/>
<path d="M0 0 C4.29 0 8.58 0 13 0 C12.67 0.66 12.34 1.32 12 2 C11.01 2 10.02 2 9 2 C9 4.31 9 6.62 9 9 C8.67 9 8.34 9 8 9 C7.67 7.35 7.34 5.7 7 4 C5.64381501 5.12534105 5.64381501 5.12534105 5.9375 8.0625 C5.958125 9.031875 5.97875 10.00125 6 11 C4.35 10.67 2.7 10.34 1 10 C1.20625 9.278125 1.4125 8.55625 1.625 7.8125 C2.29425059 4.54942079 2.29425059 4.54942079 0 0 Z " fill="#162747" transform="translate(86,54)"/>
<path d="M0 0 C5.57142857 5.14285714 5.57142857 5.14285714 6 9 C5.071875 9.391875 4.14375 9.78375 3.1875 10.1875 C-0.22550118 12.12822616 -1.31198404 13.53018941 -3 17 C-3.33 16.34 -3.66 15.68 -4 15 C-3.26740357 13.33500811 -2.5311519 11.67144818 -1.76953125 10.01953125 C-0.51617568 6.73026814 -0.3065511 3.49468254 0 0 Z " fill="#D7EDF7" transform="translate(39,15)"/>
<path d="M0 0 C2.475 0.99 2.475 0.99 5 2 C5.66 2 6.32 2 7 2 C7 4.31 7 6.62 7 9 C6.34 9 5.68 9 5 9 C4.67 9.66 4.34 10.32 4 11 C2.68 11 1.36 11 0 11 C0 7.37 0 3.74 0 0 Z " fill="#1D2E58" transform="translate(114,54)"/>
<path d="M0 0 C2.125 0.375 2.125 0.375 4 1 C4.33 2.98 4.66 4.96 5 7 C2.625 8.0625 2.625 8.0625 0 9 C-0.66 8.67 -1.32 8.34 -2 8 C-2.125 5.125 -2.125 5.125 -2 2 C-1.34 1.34 -0.68 0.68 0 0 Z " fill="#1D315A" transform="translate(153,55)"/>
<path d="M0 0 C0.33 0.66 0.66 1.32 1 2 C0.01 3.485 0.01 3.485 -1 5 C-0.6878236 7.64632287 -0.6878236 7.64632287 0 10 C-1.65 10 -3.3 10 -5 10 C-4.979375 9.2575 -4.95875 8.515 -4.9375 7.75 C-4.99328688 5.29537721 -5.3069904 3.33890739 -6 1 C-4.02 0.67 -2.04 0.34 0 0 Z " fill="#162143" transform="translate(145,54)"/>
<path d="M0 0 C0.33 0 0.66 0 1 0 C1.25204765 4.62087361 1.15089686 7.99785518 -0.5625 12.3125 C-2.55540317 17.63932528 -1.85692128 22.47647124 -1 28 C-3.36740512 24.44889232 -4.79128876 21.26058803 -5 17 C-4.22178264 14.33658231 -3.18427352 11.93047127 -2.02734375 9.41015625 C-0.67430849 6.23592524 -0.29738837 3.41996625 0 0 Z " fill="#6880A4" transform="translate(38,15)"/>
<path d="M0 0 C1.98 0 3.96 0 6 0 C5.814375 0.598125 5.62875 1.19625 5.4375 1.8125 C4.77906313 4.16408762 4.77906313 4.16408762 6 7 C4.02 7 2.04 7 0 7 C0 4.69 0 2.38 0 0 Z " fill="#233868" transform="translate(123,56)"/>
<path d="M0 0 C0.66 0 1.32 0 2 0 C2 2.64 2 5.28 2 8 C1.34 8 0.68 8 0 8 C0 7.34 0 6.68 0 6 C-0.66 6 -1.32 6 -2 6 C-2 6.66 -2 7.32 -2 8 C-2.66 8 -3.32 8 -4 8 C-4 5.69 -4 3.38 -4 1 C-3.34 1 -2.68 1 -2 1 C-1.67 1.33 -1.34 1.66 -1 2 C-0.67 1.34 -0.34 0.68 0 0 Z " fill="#23396A" transform="translate(99,55)"/>
<path d="M0 0 C1.98 0 3.96 0 6 0 C5.814375 0.598125 5.62875 1.19625 5.4375 1.8125 C4.77906313 4.16408762 4.77906313 4.16408762 6 7 C4.02 7 2.04 7 0 7 C0 4.69 0 2.38 0 0 Z " fill="#223869" transform="translate(167,56)"/>
<path d="M0 0 C4.80336309 0.11741554 8.73332047 0.3153872 12.5625 3.4375 C15 6 15 6 15 8 C11.45756548 6.63408831 8.07372071 5.09068516 4.6875 3.375 C3.80449219 2.92898437 2.92148437 2.48296875 2.01171875 2.0234375 C1.34785156 1.68570312 0.68398438 1.34796875 0 1 C0 0.67 0 0.34 0 0 Z " fill="#9EB2C9" transform="translate(18,23)"/>
<path d="M0 0 C1.65 0 3.3 0 5 0 C4.67 2.97 4.34 5.94 4 9 C2.35 8.67 0.7 8.34 -1 8 C-0.67 5.36 -0.34 2.72 0 0 Z " fill="#162A4E" transform="translate(160,56)"/>
<path d="M0 0 C9.73004484 -0.76681614 9.73004484 -0.76681614 12.84375 1.11328125 C14.1875 2.5 14.1875 2.5 16 5 C13.69 5 11.38 5 9 5 C9.33 3.68 9.66 2.36 10 1 C6.7 1 3.4 1 0 1 C0 0.67 0 0.34 0 0 Z " fill="#A6BDD3" transform="translate(47,23)"/>
<path d="M0 0 C0.99 0.66 1.98 1.32 3 2 C2.67 3.32 2.34 4.64 2 6 C0.68 6 -0.64 6 -2 6 C-2.33 6.66 -2.66 7.32 -3 8 C-3 5.69 -3 3.38 -3 1 C-2.01 0.67 -1.02 0.34 0 0 Z " fill="#24396C" transform="translate(178,55)"/>
<path d="M0 0 C4.29 0 8.58 0 13 0 C12.67 0.66 12.34 1.32 12 2 C11.01 2 10.02 2 9 2 C9 4.31 9 6.62 9 9 C8.67 9 8.34 9 8 9 C8 6.69 8 4.38 8 2 C6.02 2 4.04 2 2 2 C1.67 2.66 1.34 3.32 1 4 C0.67 2.68 0.34 1.36 0 0 Z " fill="#0C0F1C" transform="translate(86,54)"/>
<path d="M0 0 C0.99 0 1.98 0 3 0 C3 2.64 3 5.28 3 8 C2.01 8 1.02 8 0 8 C0 5.36 0 2.72 0 0 Z " fill="#16213F" transform="translate(182,55)"/>
<path d="M0 0 C-1.3125 2.5 -1.3125 2.5 -3 5 C-3.99 5 -4.98 5 -6 5 C-7 3 -7 3 -8 0 C-2.25 -1.125 -2.25 -1.125 0 0 Z " fill="#1A294E" transform="translate(139,55)"/>
<path d="M0 0 C0.33 0.66 0.66 1.32 1 2 C3.02463255 2.65213292 3.02463255 2.65213292 5 3 C3.02 4.32 1.04 5.64 -1 7 C-1.66 6.67 -2.32 6.34 -3 6 C-2.01 4.02 -1.02 2.04 0 0 Z " fill="#C7DCE9" transform="translate(27,43)"/>
<path d="M0 0 C0.66 0 1.32 0 2 0 C2 0.99 2 1.98 2 3 C1.34 3 0.68 3 0 3 C0 2.01 0 1.02 0 0 Z " fill="#000000" transform="translate(129,58)"/>
<path d="M0 0 C0.66 0.33 1.32 0.66 2 1 C1.01 1.66 0.02 2.32 -1 3 C-0.67 2.01 -0.34 1.02 0 0 Z " fill="#000000" transform="translate(151,54)"/>
<path d="M0 0 C0.66 0 1.32 0 2 0 C2 0.66 2 1.32 2 2 C1.34 2 0.68 2 0 2 C0 1.34 0 0.68 0 0 Z " fill="#000000" transform="translate(127,37)"/>
<path d="M0 0 C0 3 0 3 0 3 Z " fill="#000000" transform="translate(139,7)"/>
<path d="" fill="#000000" transform="translate(0,0)"/>
<path d="M0 0 C0.99 0.495 0.99 0.495 2 1 C1.01 1.495 1.01 1.495 0 2 C0 1.34 0 0.68 0 0 Z " fill="#000000" transform="translate(137,58)"/>
<path d="M0 0 C0.66 0 1.32 0 2 0 C1.67 0.66 1.34 1.32 1 2 C0.67 1.34 0.34 0.68 0 0 Z " fill="#000000" transform="translate(134,0)"/>
<path d="M0 0 C0.66 0 1.32 0 2 0 C1.67 0.66 1.34 1.32 1 2 C0.67 1.34 0.34 0.68 0 0 Z " fill="#000000" transform="translate(77,0)"/>
<path d="M0 0 C2 1 2 1 2 1 Z " fill="#000000" transform="translate(75,64)"/>
<path d="M0 0 C2 1 2 1 2 1 Z " fill="#000000" transform="translate(1,64)"/>
<path d="" fill="#000000" transform="translate(0,0)"/>
<path d="M0 0 C2 1 2 1 2 1 Z " fill="#000000" transform="translate(129,54)"/>
<path d="" fill="#000000" transform="translate(0,0)"/>
<path d="" fill="#000000" transform="translate(0,0)"/>
<path d="" fill="#000000" transform="translate(0,0)"/>
<path d="" fill="#000000" transform="translate(0,0)"/>
<path d="" fill="#000000" transform="translate(0,0)"/>
<path d="" fill="#000000" transform="translate(0,0)"/>
<path d="" fill="#000000" transform="translate(0,0)"/>
<path d="" fill="#000000" transform="translate(0,0)"/>
<path d="" fill="#000000" transform="translate(0,0)"/>
<path d="M0 0 C2 1 2 1 2 1 Z " fill="#000000" transform="translate(206,0)"/>
<path d="M0 0 C2 1 2 1 2 1 Z " fill="#000000" transform="translate(99,0)"/>
<path d="" fill="#000000" transform="translate(0,0)"/>
<path d="" fill="#000000" transform="translate(0,0)"/>
<path d="" fill="#000000" transform="translate(0,0)"/>
<path d="" fill="#000000" transform="translate(0,0)"/>
<path d="" fill="#000000" transform="translate(0,0)"/>
<path d="" fill="#000000" transform="translate(0,0)"/>
<path d="" fill="#000000" transform="translate(0,0)"/>
<path d="" fill="#000000" transform="translate(0,0)"/>
<path d="" fill="#000000" transform="translate(0,0)"/>
<path d="" fill="#000000" transform="translate(0,0)"/>
<path d="" fill="#000000" transform="translate(0,0)"/>
<path d="" fill="#000000" transform="translate(0,0)"/>
<path d="" fill="#000000" transform="translate(0,0)"/>
<path d="" fill="#000000" transform="translate(0,0)"/>
<path d="" fill="#000000" transform="translate(0,0)"/>
<path d="" fill="#000000" transform="translate(0,0)"/>
<path d="" fill="#000000" transform="translate(0,0)"/>
<path d="" fill="#000000" transform="translate(0,0)"/>
<path d="" fill="#000000" transform="translate(0,0)"/>
<path d="" fill="#000000" transform="translate(0,0)"/>
<path d="" fill="#000000" transform="translate(0,0)"/>
<path d="" fill="#000000" transform="translate(0,0)"/>
<path d="" fill="#000000" transform="translate(0,0)"/>
<path d="" fill="#000000" transform="translate(0,0)"/>
<path d="" fill="#000000" transform="translate(0,0)"/>
<path d="" fill="#000000" transform="translate(0,0)"/>
<path d="" fill="#000000" transform="translate(0,0)"/>
<path d="" fill="#000000" transform="translate(0,0)"/>
<path d="" fill="#000000" transform="translate(0,0)"/>
<path d="" fill="#000000" transform="translate(0,0)"/>
<path d="" fill="#000000" transform="translate(0,0)"/>
<path d="" fill="#000000" transform="translate(0,0)"/>
<path d="" fill="#000000" transform="translate(0,0)"/>
<path d="" fill="#000000" transform="translate(0,0)"/>
<path d="" fill="#000000" transform="translate(0,0)"/>
<path d="" fill="#000000" transform="translate(0,0)"/>
<path d="" fill="#000000" transform="translate(0,0)"/>
<path d="" fill="#000000" transform="translate(0,0)"/>
<path d="" fill="#000000" transform="translate(0,0)"/>
<path d="" fill="#000000" transform="translate(0,0)"/>
<path d="" fill="#000000" transform="translate(0,0)"/>
<path d="" fill="#000000" transform="translate(0,0)"/>
<path d="" fill="#000000" transform="translate(0,0)"/>
<path d="" fill="#000000" transform="translate(0,0)"/>
<path d="" fill="#000000" transform="translate(0,0)"/>
<path d="" fill="#000000" transform="translate(0,0)"/>
<path d="" fill="#000000" transform="translate(0,0)"/>
<path d="" fill="#000000" transform="translate(0,0)"/>
<path d="" fill="#000000" transform="translate(0,0)"/>
<path d="" fill="#000000" transform="translate(0,0)"/>
<path d="" fill="#000000" transform="translate(0,0)"/>
<path d="" fill="#000000" transform="translate(0,0)"/>
<path d="" fill="#000000" transform="translate(0,0)"/>
<path d="" fill="#000000" transform="translate(0,0)"/>
<path d="" fill="#000000" transform="translate(0,0)"/>
<path d="" fill="#000000" transform="translate(0,0)"/>
</svg>
